<?xml version="1.0" encoding="UTF-8" standalone="no"?>
<!-- Created with Inkscape (http://www.inkscape.org/) -->
<svg
   xmlns:dc="http://purl.org/dc/elements/1.1/"
   xmlns:cc="http://web.resource.org/cc/"
   xmlns:rdf="http://www.w3.org/1999/02/22-rdf-syntax-ns#"
   xmlns:svg="http://www.w3.org/2000/svg"
   xmlns="http://www.w3.org/2000/svg"
   xmlns:sodipodi="http://inkscape.sourceforge.net/DTD/sodipodi-0.dtd"
   xmlns:inkscape="http://www.inkscape.org/namespaces/inkscape"
   version="1.0"
   x="0.00000000"
   y="0.00000000"
   width="289"
   height="289"
   id="svg1407"
   sodipodi:version="0.32"
   inkscape:version="0.42.2"
   sodipodi:docname="Ontario Junction template.svg"
   sodipodi:docbase="C:\Documents and Settings\spui\My Documents\signs\ontario">
  <metadata
     id="metadata17">
    <rdf:RDF>
      <cc:Work
         rdf:about="">
        <dc:format>image/svg+xml</dc:format>
        <dc:type
           rdf:resource="http://purl.org/dc/dcmitype/StillImage" />
      </cc:Work>
    </rdf:RDF>
  </metadata>
  <sodipodi:namedview
     inkscape:window-height="931"
     inkscape:window-width="1400"
     inkscape:pageshadow="2"
     inkscape:pageopacity="0.0"
     borderopacity="1.0"
     bordercolor="#666666"
     pagecolor="#ffffff"
     id="base"
     inkscape:zoom="1.0177895"
     inkscape:cx="155.60907"
     inkscape:cy="141.12017"
     inkscape:window-x="-4"
     inkscape:window-y="96"
     inkscape:current-layer="layer1" />
  <defs
     id="defs1409" />
  <g
     id="layer1"
     transform="translate(-230.5000,-387.8622)">
    <path
       d="M 471.93190,670.36228 C 482.99977,670.31003 501.23073,670.33054 504.71364,653.49949 C 506.08424,646.87742 504.46217,637.26707 501.99684,631.18650 C 501.40944,629.73777 500.81764,628.21042 500.54909,626.61130 C 500.05348,623.66404 499.33278,620.60447 498.54469,617.75437 C 496.88991,611.76951 496.58473,605.35251 496.28737,599.08249 C 495.51784,582.86619 499.56666,573.58445 504.24147,558.39939 C 506.53248,550.95749 509.67409,544.25046 511.57448,536.60837 C 512.32497,533.58884 512.49245,530.43259 512.73610,527.30124 C 513.93971,511.81833 511.10329,496.91843 502.64772,485.09129 C 497.79957,478.31004 495.12331,475.95750 493.37575,474.47508 C 490.17506,471.76121 481.68727,467.90672 478.37868,467.67381 C 456.74635,465.40818 435.99098,470.19481 435.99098,470.19481 C 431.21901,471.47557 422.87282,474.76219 418.49733,475.74656 C 411.88112,477.23484 396.07887,480.70457 391.56911,477.03465 C 390.59450,476.24168 389.18043,473.68895 388.83034,472.48045 C 385.88502,462.31883 404.91139,458.79490 397.51881,445.26658 C 395.07252,440.79100 378.18629,430.41697 381.99391,426.22508 C 385.87916,421.94725 394.23317,437.55564 396.22291,432.87303 C 396.63991,431.89207 396.46266,414.55760 396.47194,412.09080 C 396.47536,411.17869 396.53248,410.18895 396.10573,409.35057 C 393.90358,405.02147 385.64674,417.39354 381.73903,412.90086 C 376.96950,407.41697 391.06471,393.65916 381.64528,394.39012 L 368.35426,394.39012 C 358.93483,393.65916 373.03004,407.41697 368.26051,412.90086 C 364.35280,417.39354 356.09645,405.02147 353.89381,409.35057 C 353.46754,410.18895 353.52418,411.17869 353.52760,412.09080 C 353.53688,414.55760 353.36012,431.89207 353.77711,432.87303 C 355.76686,437.55564 364.12038,421.94725 368.00612,426.22508 C 371.81325,430.41697 354.92702,440.79100 352.48122,445.26658 C 345.08864,458.79490 364.11500,462.31883 361.16969,472.48045 C 360.81911,473.68895 359.40504,476.24168 358.43043,477.03465 C 353.92067,480.70457 338.11842,477.23484 331.50221,475.74656 C 327.12672,474.76219 318.78053,471.47557 314.00905,470.19481 C 314.00905,470.19481 293.25367,465.40818 271.62135,467.67381 C 268.31227,467.90672 259.82447,471.76121 256.62428,474.47508 C 254.87623,475.95750 252.20045,478.31004 247.35231,485.09129 C 238.89625,496.91843 236.06031,511.81833 237.26393,527.30124 C 237.50709,530.43259 237.67457,533.58884 238.42555,536.60837 C 240.32594,544.25046 243.46754,550.95749 245.75856,558.39939 C 250.43287,573.58445 254.48219,582.86619 253.71217,599.08249 C 253.41481,605.35251 253.10963,611.76951 251.45485,617.75437 C 250.66725,620.60447 249.94655,623.66404 249.45094,626.61130 C 249.18190,628.21042 248.59010,629.73777 248.00319,631.18650 C 245.53785,637.26707 243.91578,646.87742 245.28590,653.49949 C 248.76930,670.33054 266.99977,670.31003 278.06764,670.36228 L 471.93190,670.36228 z "
       style="fill:#ffffff;fill-rule:evenodd;stroke:#000000;stroke-width:6.0000000;stroke-miterlimit:3.8636930;fill-opacity:1.0000000"
       id="path20" />
    <rect
       width="234.75684"
       height="209.99805"
       x="257.62158"
       y="427.36316"
       style="fill:none"
       id="rect22" />
    <text
       x="374.98907"
       y="639.36218"
       style="font-size:200.00000px;font-style:normal;font-variant:normal;font-weight:normal;font-stretch:normal;text-align:center;line-height:125.00000%;writing-mode:lr-tb;text-anchor:middle;font-family:Roadgeek 2005 Series D"
       id="text24"
       sodipodi:linespacing="125.00000%">
      <tspan
         style="font-size:200.00000px;font-style:normal;font-variant:normal;font-weight:normal;font-stretch:normal;text-align:center;line-height:125.00000%;writing-mode:lr-tb;text-anchor:middle;font-family:Roadgeek 2005 Series D"
         id="tspan1337">99</tspan>
    </text>
  </g>
</svg>
